<svg xmlns="http://www.w3.org/2000/svg" xmlns:xlink="http://www.w3.org/1999/xlink" viewBox="17805 15262 128 128">
  <defs>
    <style>
      .cls-1 {
        clip-path: url(#clip-ic_camera);
      }
    </style>
    <clipPath id="clip-ic_camera">
      <rect x="17805" y="15262" width="128" height="128"/>
    </clipPath>
  </defs>
  <g id="ic_camera" class="cls-1">
    <path id="Screenshot" d="M44.739,5A7.455,7.455,0,0,0,38.62,8.475q0,.038,0,.076l-3.853,6.119H13.087A12.136,12.136,0,0,0,1,26.756V84.772A12.136,12.136,0,0,0,13.087,96.859h91.859a12.136,12.136,0,0,0,12.087-12.087V26.756a12.136,12.136,0,0,0-12.087-12.087H83.039L79.186,8.55q0-.038,0-.076A7.455,7.455,0,0,0,73.067,5Zm0,4.835H73.067a2.461,2.461,0,0,1,2.04,1.36l4.608,7.177a2.418,2.418,0,0,0,2.04,1.133h23.191a7.259,7.259,0,0,1,7.252,7.252V84.772a7.259,7.259,0,0,1-7.252,7.252H13.087a7.259,7.259,0,0,1-7.252-7.252V26.756A7.259,7.259,0,0,1,13.087,19.5H36.051a2.418,2.418,0,0,0,2.04-1.133l4.533-7.177.075-.076A2.561,2.561,0,0,1,44.739,9.835Zm-21.983,14.5a7.252,7.252,0,1,0,7.252,7.252A7.288,7.288,0,0,0,22.756,24.339Zm0,4.835a2.417,2.417,0,1,1-2.417,2.417A2.411,2.411,0,0,1,22.756,29.173Zm36.26,0A26.591,26.591,0,1,0,85.607,55.764,26.627,26.627,0,0,0,59.016,29.173Zm0,4.835A21.756,21.756,0,1,1,37.26,55.764,21.72,21.72,0,0,1,59.016,34.008Z" transform="translate(17810 15273)"/>
  </g>
</svg>
