<svg xmlns="http://www.w3.org/2000/svg" xmlns:xlink="http://www.w3.org/1999/xlink" viewBox="18249 17355 128 128">
  <defs>
    <style>
      .cls-1 {
        fill: #fff;
        stroke: #95989a;
      }

      .cls-2 {
        clip-path: url(#clip-ic_es_requests);
      }

      .cls-3 {
        clip-path: url(#clip-path);
      }
    </style>
    <clipPath id="clip-path">
      <circle id="Ellipse_54" data-name="Ellipse 54" class="cls-1" cx="39" cy="39" r="39" transform="translate(15 13)"/>
    </clipPath>
    <clipPath id="clip-ic_es_requests">
      <rect x="18249" y="17355" width="128" height="128"/>
    </clipPath>
  </defs>
  <g id="ic_es_requests" class="cls-2">
    <path id="Search" d="M45.087,3A41.087,41.087,0,1,0,69.1,77.395l31.8,31.721,6.8-6.8L76.28,70.824A41.083,41.083,0,0,0,45.087,3Zm0,4.834A36.253,36.253,0,1,1,8.834,44.087,36.217,36.217,0,0,1,45.087,7.834Z" transform="translate(18258.4 17362.99)"/>
    <g id="Mask_Group_29" data-name="Mask Group 29" class="cls-3" transform="translate(18249 17355)">
      <path id="Home" d="M32.621.067a1.316,1.316,0,0,0-.7.411L.461,33.214a1.324,1.324,0,1,0,1.933,1.81l4.154-4.318v35.08H59.189V30.706l4.154,4.318a1.324,1.324,0,1,0,1.933-1.81L33.814.478A1.316,1.316,0,0,0,32.621.067Zm.247,3.208L56.556,27.95v35.2H42.08V35.517H23.656V63.154H9.18V27.95Zm13.16,3.29v3.989l2.632,2.714V9.2h2.632v6.827l2.632,2.755V6.565ZM26.288,38.149h13.16v25H26.288Z" transform="translate(9.896 31.252)"/>
    </g>
  </g>
</svg>
