<svg xmlns="http://www.w3.org/2000/svg" xmlns:xlink="http://www.w3.org/1999/xlink" viewBox="18101 17355 128 128">
  <defs>
    <style>
      .cls-1 {
        clip-path: url(#clip-ic_es_matches);
      }
    </style>
    <clipPath id="clip-ic_es_matches">
      <rect x="18101" y="17355" width="128" height="128"/>
    </clipPath>
  </defs>
  <g id="ic_es_matches" class="cls-1">
    <path id="Reseller" d="M51.963,3c-7.7,0-12.924,2.372-15.541,6.591-2.441,3.936-2.378,8.911-1.38,14.13A5.038,5.038,0,0,0,34.09,27.4a8.131,8.131,0,0,0,1.455,4.114c.291.377.729.37,1.092.625a12.591,12.591,0,0,0,1.957,5.027,17.34,17.34,0,0,0,1.681,2.162c.163.177.362.278.507.428v4.084a4.838,4.838,0,0,1-2.472,2.228c-1.513.787-3.592,1.519-5.752,2.485a18.78,18.78,0,0,0-6.29,4.171,13.037,13.037,0,0,0-3.372,8.29,2.237,2.237,0,0,0,2.232,2.367h49.2a2.237,2.237,0,0,0,2.232-2.367,13.038,13.038,0,0,0-3.367-8.29A18.8,18.8,0,0,0,66.9,48.552c-2.16-.966-4.239-1.7-5.752-2.489a4.835,4.835,0,0,1-2.472-2.223V39.768c.144-.147.339-.246.5-.419a17.962,17.962,0,0,0,1.7-2.127,12.17,12.17,0,0,0,2.014-4.887c.369-.256.81-.255,1.105-.638a8.122,8.122,0,0,0,1.455-4.11,5.98,5.98,0,0,0-.371-3.075c-.091-.214-.408-.3-.533-.5,1.039-3.792,1.313-7.939-.1-11.583a11.3,11.3,0,0,0-9.758-6.989l-.8-1.345A2.237,2.237,0,0,0,51.963,3ZM50.8,7.656l.572.961A2.237,2.237,0,0,0,53.3,9.709c4.191,0,5.941,1.682,6.975,4.342s.893,6.5-.188,9.771a2.237,2.237,0,0,0,.891,2.573,1.422,1.422,0,0,1,.039.664l0,0a4.127,4.127,0,0,1-.55,1.887,2.237,2.237,0,0,0-1.786,2.188A8.069,8.069,0,0,1,57.2,34.689a13.782,13.782,0,0,1-1.28,1.59c-.381.4-.839.692-.533.528A2.237,2.237,0,0,0,54.2,38.781v5.7a2.236,2.236,0,0,0,.135.769,9.148,9.148,0,0,0,4.748,4.779c1.947,1.012,4.058,1.736,5.988,2.6a14.8,14.8,0,0,1,4.844,3.14,7.864,7.864,0,0,1,1.673,3.136H27.866a7.864,7.864,0,0,1,1.673-3.136,14.8,14.8,0,0,1,4.844-3.136c1.93-.863,4.041-1.591,5.988-2.6a9.152,9.152,0,0,0,4.748-4.783,2.237,2.237,0,0,0,.135-.764v-5.7a2.237,2.237,0,0,0-1.184-1.974c.319.17-.132-.109-.5-.511a13.165,13.165,0,0,1-1.245-1.6,8.224,8.224,0,0,1-1.455-3.743,2.237,2.237,0,0,0-1.787-2.188,4.122,4.122,0,0,1-.555-1.891,1.049,1.049,0,0,1,.114-.721,2.237,2.237,0,0,0,.878-2.289c-1.105-5.083-.938-9.262.708-11.915C41.75,9.493,44.954,7.9,50.8,7.656Zm-26.788,60.2-9.487,9.7a5.6,5.6,0,0,0-2.817-.756,6.709,6.709,0,0,0,0,13.418c3.043,0,5.22-2.273,6.028-5.071a2.309,2.309,0,0,0,0-3.276,8.514,8.514,0,0,0-.349-.97,2.221,2.221,0,0,0,.585-.524L29.6,67.854Zm23.477,0V88.4a6.709,6.709,0,1,0,4.473,0V67.854Zm22.363,0L81.481,80.376a2.192,2.192,0,0,0,.585.524,8.515,8.515,0,0,0-.349.97,2.309,2.309,0,0,0,0,3.276c.808,2.8,2.985,5.071,6.028,5.071a6.709,6.709,0,0,0,0-13.418,5.6,5.6,0,0,0-2.817.756l-9.487-9.7ZM11.709,81.271a2.236,2.236,0,1,1-2.236,2.236A2.2,2.2,0,0,1,11.709,81.271Zm76.035,0a2.236,2.236,0,1,1-2.236,2.236A2.2,2.2,0,0,1,87.744,81.271ZM49.727,92.453a2.236,2.236,0,1,1-2.236,2.236A2.2,2.2,0,0,1,49.727,92.453Z" transform="translate(18115.273 17366.801)"/>
  </g>
</svg>
