<svg xmlns="http://www.w3.org/2000/svg" xmlns:xlink="http://www.w3.org/1999/xlink" viewBox="17657 15450 128 128">
  <defs>
    <style>
      .cls-1 {
        clip-path: url(#clip-ic_eye);
      }
    </style>
    <clipPath id="clip-ic_eye">
      <rect x="17657" y="15450" width="128" height="128"/>
    </clipPath>
  </defs>
  <g id="ic_eye" class="cls-1">
    <path id="Visible" d="M60.087,12C27.259,12,1.609,42.393,1.609,42.393a2.462,2.462,0,0,0,0,3.232s25.65,30.393,58.479,30.393,58.479-30.393,58.479-30.393a2.462,2.462,0,0,0,0-3.232S92.916,12,60.087,12Zm0,4.924a54.735,54.735,0,0,1,18.39,3.386,24.584,24.584,0,1,1-36.857,0A54.8,54.8,0,0,1,60.087,16.924Zm-26.623,7a29.525,29.525,0,1,0,56.17,12.7,29.772,29.772,0,0,0-2.847-12.7,100.54,100.54,0,0,1,26.469,20.082c-4,4.325-26.156,27.084-53.169,27.084S10.918,48.334,6.918,44.008A100.813,100.813,0,0,1,33.464,23.926Zm26.623.385A12.311,12.311,0,1,0,72.4,36.622,12.311,12.311,0,0,0,60.087,24.311Z" transform="translate(17660.995 15470)"/>
  </g>
</svg>
