<svg xmlns="http://www.w3.org/2000/svg" xmlns:xlink="http://www.w3.org/1999/xlink" viewBox="18249 15262 128 128">
  <defs>
    <style>
      .cls-1 {
        clip-path: url(#clip-ic_facebook);
      }

      .cls-2 {
        fill: #fff;
      }
    </style>
    <clipPath id="clip-ic_facebook">
      <rect x="18249" y="15262" width="128" height="128"/>
    </clipPath>
  </defs>
  <g id="ic_facebook" class="cls-1">
    <path id="Path_380" data-name="Path 380" class="cls-2" d="M109.594,0H6.4A6.4,6.4,0,0,0,0,6.4V109.595A6.405,6.405,0,0,0,6.4,116H61.958V71.079H46.842V53.57H61.958V40.658c0-14.98,9.147-23.142,22.514-23.142a125.377,125.377,0,0,1,13.506.688V33.862l-9.271,0c-7.268,0-8.67,3.455-8.67,8.523V53.564H97.375L95.108,71.071H80.034V116h29.558a6.409,6.409,0,0,0,6.408-6.4V6.4A6.4,6.4,0,0,0,109.594,0Z" transform="translate(18255 15267.999)"/>
  </g>
</svg>
