<svg xmlns="http://www.w3.org/2000/svg" xmlns:xlink="http://www.w3.org/1999/xlink" viewBox="18101 15262 128 128">
  <defs>
    <style>
      .cls-1 {
        clip-path: url(#clip-ic_info);
      }

      .cls-2 {
        fill: #ff0101;
      }
    </style>
    <clipPath id="clip-ic_info">
      <rect x="18101" y="15262" width="128" height="128"/>
    </clipPath>
  </defs>
  <g id="ic_info" class="cls-1">
    <path id="Info" class="cls-2" d="M50,0a50,50,0,1,0,50,50A50.03,50.03,0,0,0,50,0Zm0,4A46,46,0,1,1,4,50,45.97,45.97,0,0,1,50,4ZM47.563,25.813a.632.632,0,0,0-.688.687v5.25a.681.681,0,0,0,.688.75h4.875a.683.683,0,0,0,.687-.75V26.5a.632.632,0,0,0-.687-.687ZM47.438,40.25a.715.715,0,0,0-.438.688V73.875a.632.632,0,0,0,.688.688h4.625A.631.631,0,0,0,53,73.875V40.938a.631.631,0,0,0-.687-.688H47.688C47.581,40.25,47.525,40.216,47.438,40.25Z" transform="translate(18115 15276)"/>
  </g>
</svg>
