<svg xmlns="http://www.w3.org/2000/svg" xmlns:xlink="http://www.w3.org/1999/xlink" viewBox="19010 15262 128 128">
  <defs>
    <style>
      .cls-1 {
        clip-path: url(#clip-ic_info_nav);
      }

      .cls-2 {
        fill: #fff;
      }
    </style>
    <clipPath id="clip-ic_info_nav">
      <rect x="19010" y="15262" width="128" height="128"/>
    </clipPath>
  </defs>
  <g id="ic_info_nav" class="cls-1">
    <path id="Rating_1_" data-name="Rating (1)" class="cls-2" d="M12.286,4A8.326,8.326,0,0,0,4,12.286v99.429A8.326,8.326,0,0,0,12.286,120h99.429A8.326,8.326,0,0,0,120,111.714V12.286A8.326,8.326,0,0,0,111.714,4Zm0,5.524h99.429a2.754,2.754,0,0,1,2.762,2.762v99.429a2.754,2.754,0,0,1-2.762,2.762H12.286a2.754,2.754,0,0,1-2.762-2.762V12.286A2.754,2.754,0,0,1,12.286,9.524Z" transform="translate(19012 15264)"/>
    <path id="Info" class="cls-2" d="M47.722,25.813a.778.778,0,0,0-.847.846v6.464a.838.838,0,0,0,.847.923h6a.841.841,0,0,0,.846-.923V26.659a.778.778,0,0,0-.846-.846Zm-.154,17.777a.88.88,0,0,0-.539.847V84.991a.778.778,0,0,0,.847.847H53.57a.777.777,0,0,0,.846-.847V44.436a.777.777,0,0,0-.846-.847H47.876C47.744,43.589,47.675,43.548,47.568,43.589Z" transform="translate(19023.277 15270.362)"/>
  </g>
</svg>
