<svg xmlns="http://www.w3.org/2000/svg" xmlns:xlink="http://www.w3.org/1999/xlink" viewBox="18397 15262 128 128">
  <defs>
    <style>
      .cls-1 {
        clip-path: url(#clip-ic_profile_placeholder);
      }
    </style>
    <clipPath id="clip-ic_profile_placeholder">
      <rect x="18397" y="15262" width="128" height="128"/>
    </clipPath>
  </defs>
  <g id="ic_profile_placeholder" class="cls-1">
    <path id="Info" d="M50,0a50,50,0,1,0,50,50A50.03,50.03,0,0,0,50,0Zm0,4A46,46,0,1,1,4,50,45.97,45.97,0,0,1,50,4Z" transform="translate(18411 15276)"/>
    <path id="Contacts" d="M38.14,3.312c-7.814.176-12.759,3.335-14.884,8.222-2.024,4.654-1.6,10.511-.156,16.6a5.329,5.329,0,0,0-1.249,4.111v.1a9.257,9.257,0,0,0,1.665,4.476c.369.483.9.507,1.353.781a18.248,18.248,0,0,0,2.342,6.141,1.665,1.665,0,0,0,.312.676s.171.212.208.26a5.6,5.6,0,0,1,.781,3.07,35.713,35.713,0,0,1-.156,3.8c-.5,1.262-1.748,2.269-3.747,3.278-2.086,1.054-4.821,2.026-7.6,3.227A24.081,24.081,0,0,0,9.153,63a14.5,14.5,0,0,0-4.111,9.627L38.348,84.813,71.654,72.631A14.52,14.52,0,0,0,67.595,63a23.951,23.951,0,0,0-7.858-4.944c-2.778-1.2-5.527-2.169-7.65-3.227-2.057-1.025-3.346-2.075-3.9-3.383-.129-1.577-.156-2.82-.156-4.215a4.489,4.489,0,0,1,.833-2.5c.012-.017.04-.035.052-.052s.1-.1.1-.1a1.665,1.665,0,0,0,.416-.781A19.248,19.248,0,0,0,51.67,37.66c.519-.272,1.105-.3,1.509-.833a8.716,8.716,0,0,0,1.457-4.58,5.35,5.35,0,0,0-1.145-4.007,30.547,30.547,0,0,0,1.561-11.293,13.2,13.2,0,0,0-2.238-6.765,9.641,9.641,0,0,0-5.985-3.591c-1.763-2.354-4.967-3.279-8.639-3.279Zm.052,3.331h.052c3.325.012,5.449.948,6.141,2.134l.416.729.833.1a6.014,6.014,0,0,1,4.476,2.5,10.153,10.153,0,0,1,1.613,5.1,29.918,29.918,0,0,1-1.613,10.825l-.52,1.405,1.3.677a2.831,2.831,0,0,1,.468,1.821c0,.027,0,.025,0,.052a5.8,5.8,0,0,1-.833,2.81c-.281.367-.42.312-.364.312H48.7L48.5,36.567a16.524,16.524,0,0,1-2.342,6.245H46.1c-.1.143-.17.315-.26.468a18.47,18.47,0,0,1-2.03,1.978,9.287,9.287,0,0,1-5.464,2.5c-1.832,0-3.916-1.231-5.516-2.6a19.131,19.131,0,0,1-2.446-2.5c-.007-.01.007-.041,0-.052a15.559,15.559,0,0,1-2.394-6.037l-.156-1.457H26.482a1.039,1.039,0,0,1-.364-.312,6.456,6.456,0,0,1-.937-2.81c0-.033,0-.019,0-.052s0-.026,0-.052a3.088,3.088,0,0,1,.624-1.873l.937-.677-.26-1.145c-1.537-6.066-1.778-11.569-.156-15.3S31.225,6.812,38.192,6.643Zm-6.349,42a11.049,11.049,0,0,0,6.505,2.446A10.853,10.853,0,0,0,44.7,48.744c.007,1.016.04,2.054.156,3.331v.208l.1.208a7.5,7.5,0,0,0,1.2,2.03,1.666,1.666,0,0,0-.052.208,7.23,7.23,0,0,1-1.561,2.29,8.044,8.044,0,0,1-6.193,2.394,8.246,8.246,0,0,1-6.3-2.5,7.293,7.293,0,0,1-1.613-2.394,7.189,7.189,0,0,0,1.145-2.082l.052-.156.052-.156A30.768,30.768,0,0,0,31.843,48.64Zm16.913,8.17a18.99,18.99,0,0,0,1.822,1.041C53.008,59.063,55.77,60,58.384,61.13A21.2,21.2,0,0,1,65.2,65.345a10.827,10.827,0,0,1,2.706,5.725S53.127,83.213,38.348,83.213,8.789,71.07,8.789,71.07a10.794,10.794,0,0,1,2.706-5.725,21.544,21.544,0,0,1,6.869-4.215c2.615-1.131,5.349-2.063,7.754-3.279a18.639,18.639,0,0,0,1.769-.989,11.361,11.361,0,0,0,1.769,2.394,11.884,11.884,0,0,0,8.691,3.487,11.7,11.7,0,0,0,8.587-3.435A10.5,10.5,0,0,0,48.756,56.811Z" transform="translate(18422.715 15290.487)"/>
  </g>
</svg>
