<svg xmlns="http://www.w3.org/2000/svg" xmlns:xlink="http://www.w3.org/1999/xlink" viewBox="17657 16383 128 128">
  <defs>
    <style>
      .cls-1 {
        clip-path: url(#clip-ic_request_size);
      }

      .cls-2 {
        fill: #55d978;
      }
    </style>
    <clipPath id="clip-ic_request_size">
      <rect x="17657" y="16383" width="128" height="128"/>
    </clipPath>
  </defs>
  <g id="ic_request_size" class="cls-1">
    <path id="Bed" class="cls-2" d="M10.2,10a6.151,6.151,0,0,0-6.12,6.12V47.1a2.04,2.04,0,0,0,.064.383q0,.032,0,.064A21.459,21.459,0,0,0,1.914,52.2,43.085,43.085,0,0,0,0,65.081v2.04q0,.1,0,.191V91.6h14.28v-8.16a4.136,4.136,0,0,1,.956-3.124,4.136,4.136,0,0,1,3.124-.956H83.643a3.482,3.482,0,0,1,4.08,4.08V91.6H102V67.44a2.042,2.042,0,0,0,0-.319c0-.7.015-1.36,0-2.04A43.086,43.086,0,0,0,100.091,52.2a21.434,21.434,0,0,0-2.231-4.59,2.041,2.041,0,0,0,.064-.51V16.12A6.151,6.151,0,0,0,91.8,10Zm0,4.08H91.8a2.01,2.01,0,0,1,2.04,2.04V42.959q-.756-.632-1.594-1.211a27.058,27.058,0,0,0-4.526-2.55V30.4a4.045,4.045,0,0,0-1.976-3.251,12.264,12.264,0,0,0-3.889-1.594A56.866,56.866,0,0,0,68.342,24.28a56.866,56.866,0,0,0-13.515,1.275A12.466,12.466,0,0,0,51,27.085a12.466,12.466,0,0,0-3.825-1.53A56.866,56.866,0,0,0,33.662,24.28a56.866,56.866,0,0,0-13.515,1.275,12.263,12.263,0,0,0-3.889,1.594A4.044,4.044,0,0,0,14.281,30.4v8.8a27.057,27.057,0,0,0-4.526,2.55q-.838.577-1.594,1.211V16.12A2.01,2.01,0,0,1,10.2,14.08Zm23.46,14.28a54,54,0,0,1,12.5,1.148,9.175,9.175,0,0,1,2.614,1.02c.163.111.174.126.191.128V34.48c-13.414.089-23.34,1.095-30.6,3.315v-7.14c.017,0,.028-.017.191-.128a9.173,9.173,0,0,1,2.614-1.02A54,54,0,0,1,33.662,28.36Zm34.681,0a53.993,53.993,0,0,1,12.5,1.148,9.175,9.175,0,0,1,2.614,1.02c.163.111.174.126.191.128V37.8c-7.261-2.22-17.187-3.227-30.6-3.315V30.655c.017,0,.028-.017.191-.128a9.171,9.171,0,0,1,2.614-1.02A54,54,0,0,1,68.342,28.36ZM50.62,38.561a2.04,2.04,0,0,0,.638,0h.191c20.415.032,32.214,2.167,38.506,6.5a15.97,15.97,0,0,1,6.311,8.479,39.379,39.379,0,0,1,1.594,11.539H4.145A39.375,39.375,0,0,1,5.739,53.542a15.97,15.97,0,0,1,6.311-8.479C18.349,40.723,30.164,38.588,50.62,38.561ZM4.081,69.161H97.923v18.36H91.8v-4.08a7.354,7.354,0,0,0-8.16-8.16H18.361a8.338,8.338,0,0,0-6.056,2.1,8.338,8.338,0,0,0-2.1,6.056v4.08H4.081Z" transform="translate(17670.002 16396)"/>
  </g>
</svg>
