<svg xmlns="http://www.w3.org/2000/svg" xmlns:xlink="http://www.w3.org/1999/xlink" viewBox="17657 16087 128 128">
  <defs>
    <style>
      .cls-1 {
        clip-path: url(#clip-ic_request_location);
      }

      .cls-2 {
        fill: #55d978;
      }
    </style>
    <clipPath id="clip-ic_request_location">
      <rect x="17657" y="16087" width="128" height="128"/>
    </clipPath>
  </defs>
  <g id="ic_request_location" class="cls-1">
    <path id="Marker" class="cls-2" d="M44,1A35,35,0,0,0,9,36c0,15.99,8.445,33.171,16.748,46.484a192.178,192.178,0,0,0,16.611,22.764,2.188,2.188,0,0,0,3.281,0A202.72,202.72,0,0,0,62.252,82.211C70.552,68.821,79,51.679,79,36A35,35,0,0,0,44,1Zm0,4.375A30.542,30.542,0,0,1,74.625,36c0,14.071-7.958,30.808-16.064,43.887A180.764,180.764,0,0,1,44,100.326,170.633,170.633,0,0,1,29.44,80.16C21.336,67.168,13.375,50.416,13.375,36A30.542,30.542,0,0,1,44,5.375Zm0,17.5A15.313,15.313,0,1,0,59.313,38.188,15.346,15.346,0,0,0,44,22.875Zm0,4.375A10.938,10.938,0,1,1,33.063,38.188,10.9,10.9,0,0,1,44,27.25Z" transform="translate(17677 16098)"/>
  </g>
</svg>
