<svg xmlns="http://www.w3.org/2000/svg" xmlns:xlink="http://www.w3.org/1999/xlink" viewBox="18862 15262 128 128">
  <defs>
    <style>
      .cls-1 {
        clip-path: url(#clip-ic_rating_nav);
      }

      .cls-2 {
        fill: #fff;
      }
    </style>
    <clipPath id="clip-ic_rating_nav">
      <rect x="18862" y="15262" width="128" height="128"/>
    </clipPath>
  </defs>
  <g id="ic_rating_nav" class="cls-1">
    <path id="Rating_1_" data-name="Rating (1)" class="cls-2" d="M56.425,20.054l-2.244,5.834L46.927,44.959,26.359,46.081l-6.133.374,4.787,3.889L40.794,63.283,35.708,83.1l-1.571,5.908L39.3,85.721,56.425,74.577,73.553,85.721l5.161,3.291L77.143,83.1l-5.086-19.82L87.838,50.344l4.787-3.889-6.133-.374L65.924,44.959,58.669,25.887Zm0,13.388L62.11,48.175l.524,1.421,1.571.075,15.931.9L67.869,60.516l-1.2.972.374,1.5L71.01,78.316,57.7,69.715l-1.272-.823-1.271.823-13.313,8.6L45.8,62.984l.374-1.5-1.2-.972L32.717,50.569l15.931-.9,1.571-.075.523-1.421Z" transform="translate(18869.575 15269.31)"/>
    <path id="Rating_1_2" data-name="Rating (1)" class="cls-2" d="M12.286,4A8.326,8.326,0,0,0,4,12.286v99.429A8.326,8.326,0,0,0,12.286,120h99.429A8.326,8.326,0,0,0,120,111.714V12.286A8.326,8.326,0,0,0,111.714,4Zm0,5.524h99.429a2.754,2.754,0,0,1,2.762,2.762v99.429a2.754,2.754,0,0,1-2.762,2.762H12.286a2.754,2.754,0,0,1-2.762-2.762V12.286A2.754,2.754,0,0,1,12.286,9.524Z" transform="translate(18864 15264)"/>
  </g>
</svg>
