<svg xmlns="http://www.w3.org/2000/svg" xmlns:xlink="http://www.w3.org/1999/xlink" viewBox="17657 15939 128 128">
  <defs>
    <style>
      .cls-1 {
        clip-path: url(#clip-ic_request_name);
      }

      .cls-2 {
        fill: #55d978;
      }
    </style>
    <clipPath id="clip-ic_request_name">
      <rect x="17657" y="15939" width="128" height="128"/>
    </clipPath>
  </defs>
  <g id="ic_request_name" class="cls-1">
    <path id="Diploma_1" data-name="Diploma 1" class="cls-2" d="M9.661,4A2.044,2.044,0,0,0,8,6.045V87.815a2.044,2.044,0,0,0,2.044,2.044H22.31V85.77H12.089V8.09H73.416V85.77H46.841v4.088H75.46A2.044,2.044,0,0,0,77.5,87.815V6.045A2.044,2.044,0,0,0,75.46,4H10.044q-.1,0-.192,0T9.661,4ZM22.31,28.532V32.62H63.194V28.532Zm0,12.265v4.088H63.194V40.8ZM34.575,57.151a4.873,4.873,0,0,0-3.833,2.108,4.855,4.855,0,0,0-4.216.767,4.731,4.731,0,0,0-1.533,4.024,4.451,4.451,0,0,0-1.278,7.41,4.93,4.93,0,0,0,.128,4.344,3.838,3.838,0,0,0,.511.575V93.947a2.044,2.044,0,0,0,3.258,1.661l6.963-5.238,6.963,5.238A2.044,2.044,0,0,0,44.8,93.947V76.38a3.838,3.838,0,0,0,.511-.575,4.61,4.61,0,0,0,.128-4.344,4.451,4.451,0,0,0-1.278-7.41,4.731,4.731,0,0,0-1.533-4.024,4.855,4.855,0,0,0-4.216-.767A4.952,4.952,0,0,0,34.575,57.151Zm4.088,2.492c.091.068.255.191.192.128l-.064.064C38.752,59.767,38.706,59.708,38.664,59.643Zm-4.088,1.6c.652,0,.723.123.894.639a2.044,2.044,0,0,0,.511.831,2.4,2.4,0,0,0,.767.511,2.324,2.324,0,0,0,1.086.256,2.044,2.044,0,0,0,1.086-.256,1.136,1.136,0,0,1,1.15,0c.347.278.343.377.128,1.022a2.044,2.044,0,0,0-.128.7c0,.283.145.322.256.575a2.044,2.044,0,0,0,1.661,1.852,1.115,1.115,0,0,1,.767.767,1.008,1.008,0,0,1-.447.958,2.044,2.044,0,0,0-.958,1.725v.639a2.044,2.044,0,0,0,.383,1.214,2.569,2.569,0,0,1,.064,1.022,1.008,1.008,0,0,1-.958.447,2.044,2.044,0,0,0-1.98.767q0,.032,0,.064c-.074.057-.044.049-.128.128-.024.022-.04-.024-.064,0a2.044,2.044,0,0,0-.639,1.469c0,.545,0,.552-.447.7a2.044,2.044,0,0,0-.256.128c-.012-.007.038,0-.064,0a1.577,1.577,0,0,1-.83-.447,2.044,2.044,0,0,0-1.469-.575h-.767a2.044,2.044,0,0,0-1.469.575,1.045,1.045,0,0,1-1.15.32.848.848,0,0,1-.447-.7,2.5,2.5,0,0,0-.447-1.278,2.123,2.123,0,0,0-.575-.575,2.044,2.044,0,0,0-1.789-.575,1.008,1.008,0,0,1-.958-.447c-.242-.4-.32-.559,0-.958a2.044,2.044,0,0,0,.447-1.278v-.639a2.044,2.044,0,0,0-.958-1.725,1.008,1.008,0,0,1-.447-.958,1.114,1.114,0,0,1,.767-.767,2.044,2.044,0,0,0,1.661-1.852c.11-.253.256-.293.256-.575a2.044,2.044,0,0,0-.128-.7c-.215-.645-.22-.744.128-1.022a1.136,1.136,0,0,1,1.15,0,2.044,2.044,0,0,0,2.044,0h.064l.064-.064q.065-.03.128-.064a2.044,2.044,0,0,0,1.15-1.214A1.12,1.12,0,0,1,34.575,61.24ZM28.442,79.766a4.12,4.12,0,0,0,1.725,1.342l.064.064a5.017,5.017,0,0,0,4.28-.7c.016-.01.048.01.064,0h.383a4.586,4.586,0,0,0,2.3,1.022,5.692,5.692,0,0,0,1.661-.383.33.33,0,0,1,.128-.064c.043-.019.086.021.128,0v-.064a3.9,3.9,0,0,0,1.533-1.15V89.859l-4.919-3.705a2.044,2.044,0,0,0-2.428,0l-4.919,3.705Z" transform="translate(17678 15956.002)"/>
  </g>
</svg>
