<svg xmlns="http://www.w3.org/2000/svg" xmlns:xlink="http://www.w3.org/1999/xlink" viewBox="17657 14237 128 128">
  <defs>
    <style>
      .cls-1 {
        clip-path: url(#clip-ic_settings);
      }
    </style>
    <clipPath id="clip-ic_settings">
      <rect x="17657" y="14237" width="128" height="128"/>
    </clipPath>
  </defs>
  <g id="ic_settings" class="cls-1">
    <path id="Settings_1_" data-name="Settings (1)" d="M50.625,0l-.3,2.025-2.55,15.75a43.74,43.74,0,0,0-9,3.6L25.8,12.15l-1.65-1.2-1.425,1.425-10.2,10.2L11.1,24l1.2,1.65L21.375,38.7a44.031,44.031,0,0,0-3.675,9L2.025,50.325,0,50.625v18.45l1.95.375,15.675,2.775a43.824,43.824,0,0,0,3.75,9L12.15,94.2l-1.2,1.65,1.425,1.425,10.2,10.2L24,108.9l1.65-1.2,12.975-9.15a43.98,43.98,0,0,0,9.075,3.675l2.625,15.75.3,2.025h18.45l.375-1.95,2.775-15.75a43.641,43.641,0,0,0,8.925-3.825l13.2,9.225L96,108.9l1.425-1.425,10.2-10.2,1.425-1.425-1.2-1.725L98.475,81.15a44.085,44.085,0,0,0,3.675-8.925l15.9-2.775,1.95-.375V50.625l-2.025-.3-15.75-2.55a43.927,43.927,0,0,0-3.75-8.925l9.225-13.2L108.9,24l-1.425-1.425-10.2-10.2L95.85,10.95l-1.725,1.2-12.9,9.3a43.533,43.533,0,0,0-9-3.675L69.45,1.95,69.075,0H50.625ZM54.75,4.8H65.1l2.625,15.075.225,1.5,1.575.375a38.7,38.7,0,0,1,10.725,4.5l1.35.825,1.275-.9L95.25,17.25l7.35,7.275-8.775,12.6-.9,1.275.75,1.35A39.292,39.292,0,0,1,98.1,50.475l.45,1.5,1.5.3L115.2,54.75V65.1l-15.15,2.625-1.575.3-.375,1.5A39.034,39.034,0,0,1,93.675,80.25l-.75,1.35.9,1.275,8.925,12.45L95.475,102.6l-12.6-8.775-1.275-.9-1.35.825a39.1,39.1,0,0,1-10.725,4.5l-1.5.375-.3,1.5L65.1,115.2H54.675l-2.475-15-.225-1.575L50.4,98.25a39.111,39.111,0,0,1-10.8-4.425L38.325,93l-1.35.9-12.45,8.7L17.25,95.25l8.775-12.3.9-1.275-.75-1.35a39.029,39.029,0,0,1-4.575-10.8l-.375-1.5-1.5-.3L4.8,65.1V54.75l14.925-2.475,1.575-.3.375-1.5a39.609,39.609,0,0,1,4.5-10.875L27,38.25l-.9-1.275-8.7-12.45,7.275-7.275L37.05,26.025,38.325,27l1.35-.825a38.945,38.945,0,0,1,10.8-4.425l1.575-.375.225-1.575ZM60,38.4A21.6,21.6,0,1,0,81.6,60,21.637,21.637,0,0,0,60,38.4Zm0,4.8A16.8,16.8,0,1,1,43.2,60,16.765,16.765,0,0,1,60,43.2Z" transform="translate(17661 14241)"/>
  </g>
</svg>
