<svg xmlns="http://www.w3.org/2000/svg" xmlns:xlink="http://www.w3.org/1999/xlink" viewBox="17805 14237 128 128">
  <defs>
    <style>
      .cls-1 {
        clip-path: url(#clip-ic_settings_active);
      }

      .cls-2 {
        fill: #55d978;
      }
    </style>
    <clipPath id="clip-ic_settings_active">
      <rect x="17805" y="14237" width="128" height="128"/>
    </clipPath>
  </defs>
  <g id="ic_settings_active" class="cls-1">
    <path id="Settings_Filled" data-name="Settings Filled" class="cls-2" d="M120,69.1V50.648l-17.623-2.877a44.1,44.1,0,0,0-3.78-9.124l10.267-14.634L95.813,10.968,81.362,21.354a43.875,43.875,0,0,0-9.192-3.823L69.1,0H50.642L47.794,17.473a43.673,43.673,0,0,0-9.209,3.782L24.173,10.96,11.126,24l10.135,14.49a44.153,44.153,0,0,0-3.852,9.266L0,50.656V69.1l17.381,3.079a43.681,43.681,0,0,0,3.852,9.263L10.961,95.808,24,108.863,38.513,98.7a43.946,43.946,0,0,0,9.228,3.811L50.652,120H69.1l3.113-17.535a43.948,43.948,0,0,0,9.185-3.847L96,108.863l13.051-13.057L98.616,81.323a43.715,43.715,0,0,0,3.77-9.131ZM60,76.8A16.8,16.8,0,1,1,76.8,60,16.819,16.819,0,0,1,60,76.8Z" transform="translate(17809 14241.002)"/>
  </g>
</svg>
